<svg width="344" height="98" viewBox="0 0 344 98" fill="none" xmlns="http://www.w3.org/2000/svg">
<path d="M121.783 0V32.4133H120.915C120.633 26.1932 120.125 21.2402 119.389 17.5543C118.67 13.8683 117.637 10.9426 116.291 8.77714C114.946 6.61166 113.553 5.52891 112.114 5.52891C110.487 5.52891 109.141 7.00328 108.077 9.95204C107.013 12.8547 106.482 16.1721 106.482 19.9041C106.482 22.7607 106.818 25.3639 107.491 27.7137C108.461 31.1692 110.768 35.7766 114.414 41.5358C117.387 46.2355 119.413 49.8522 120.492 52.3863C121.588 54.8745 122.425 57.8233 123.003 61.2326C123.598 64.6422 123.895 68.2129 123.895 71.9448C123.895 79.0404 122.957 85.1682 121.079 90.3285C119.217 95.4428 116.816 98 113.874 98C112.951 98 112.083 97.7927 111.269 97.3778C110.784 97.1475 109.775 96.3183 108.242 94.8899C106.724 93.4156 105.762 92.6784 105.355 92.6784C104.964 92.6784 104.651 93.024 104.416 93.7149C104.197 94.4061 104.033 95.8344 103.923 98H103.055V65.863H103.923C104.33 72.59 104.878 77.635 105.566 80.9987C106.255 84.316 107.303 87.0802 108.711 89.2917C110.135 91.5033 111.692 92.6091 113.381 92.6091C115.337 92.6091 116.878 91.0887 118.005 88.048C119.147 85.0069 119.718 81.4133 119.718 77.2664C119.718 74.9629 119.499 72.636 119.061 70.2861C118.638 67.9366 117.973 65.748 117.066 63.7208C116.456 62.3384 114.789 59.4126 112.067 54.9435C109.345 50.4284 107.405 46.8344 106.247 44.1623C105.105 41.4898 104.236 38.5411 103.642 35.316C103.047 32.0907 102.75 28.543 102.75 24.6728C102.75 17.9459 103.626 12.1636 105.378 7.32582C107.131 2.44193 109.36 0 112.067 0C113.757 0 115.548 1.22097 117.441 3.66291C118.318 4.81475 118.936 5.39067 119.295 5.39067C119.702 5.39067 120.031 5.04514 120.281 4.35401C120.547 3.61682 120.758 2.16549 120.915 0H121.783ZM136.357 51.9717V79.2707C136.357 85.1682 136.576 88.8311 137.014 90.2595C137.609 92.2868 138.508 93.3003 139.713 93.3003H140.933V95.8574H127.298V93.3003H128.495C129.841 93.3003 130.803 92.0102 131.382 89.43C131.695 88.002 131.851 84.6153 131.851 79.2707V18.7292C131.851 12.8317 131.64 9.16879 131.217 7.74047C130.607 5.71321 129.7 4.69957 128.495 4.69957H127.298V2.14245H138.962C141.81 2.14245 144.055 3.01787 145.698 4.76869C147.34 6.47342 148.725 9.37612 149.852 13.4767C150.978 17.5773 151.541 22.4382 151.541 28.0592C151.541 35.7076 150.681 41.9277 148.96 46.7194C147.254 51.5112 144.837 53.9067 141.708 53.9067C140.941 53.9067 140.112 53.7457 139.22 53.4231C138.328 53.1005 137.374 52.6169 136.357 51.9717ZM136.357 48.0325C137.186 48.4931 137.922 48.8387 138.563 49.069C139.205 49.2996 139.752 49.4146 140.206 49.4146C141.833 49.4146 143.233 47.5716 144.407 43.8857C145.596 40.1537 146.19 35.339 146.19 29.4415C146.19 25.3869 145.909 21.6319 145.346 18.1763C144.782 14.6746 143.984 12.0715 142.952 10.3667C141.919 8.6159 140.746 7.74047 139.432 7.74047C138.634 7.74047 137.609 8.17819 136.357 9.05358V48.0325ZM170.833 0C174.963 0 178.538 4.63046 181.558 13.8914C184.593 23.1062 186.111 34.6248 186.111 48.4471C186.111 62.684 184.585 74.502 181.534 83.9011C178.483 93.3003 174.791 98 170.457 98C166.076 98 162.392 93.4156 159.403 84.2467C156.431 75.0779 154.944 63.2139 154.944 48.6544C154.944 33.7724 156.665 21.6319 160.107 12.2327C163.096 4.07756 166.671 0 170.833 0ZM170.387 5.04514C167.539 5.04514 165.255 8.15513 163.534 14.3752C161.39 22.1156 160.319 33.4501 160.319 48.3778C160.319 63.6748 161.43 75.4465 163.651 83.6938C165.357 89.9599 167.61 93.093 170.41 93.093C173.399 93.093 175.863 89.6603 177.803 82.7953C179.758 75.9304 180.519 63.4442 180.519 48.6544C180.519 32.6206 179.665 22.323 177.521 14.4443C175.8 8.17819 173.422 5.04514 170.387 5.04514ZM198.033 7.2567V44.3003H205.027C206.841 44.3003 208.054 43.4941 208.664 41.8814C209.478 39.7621 209.931 36.0302 210.025 30.6853H210.894V63.3062H210.025C209.806 58.7447 209.587 55.819 209.369 54.5289C209.086 52.9162 208.625 51.6492 207.984 50.7277C207.342 49.8062 206.357 49.3456 205.027 49.3456H198.033V80.2382C198.033 84.385 198.095 86.9192 198.221 87.8407C198.346 88.7159 198.565 89.43 198.878 89.9829C199.191 90.4898 199.785 90.7431 200.661 90.7431H206.059C207.859 90.7431 209.164 90.3745 209.978 89.6373C210.791 88.9001 211.574 87.4488 212.325 85.2835C213.295 82.4268 214.289 78.1189 215.305 72.3597H216.245L213.499 95.8574H188.974V93.3003H190.1C190.851 93.3003 191.563 92.7704 192.236 91.7109C192.737 90.9737 193.073 89.8679 193.245 88.3936C193.433 86.9192 193.527 83.9011 193.527 79.3397V18.4527C193.527 12.5092 193.323 8.84626 192.917 7.46403C192.353 5.62106 191.415 4.69957 190.1 4.69957H188.974V2.14245H213.499L213.851 22.6685H212.935C212.607 17.7386 212.239 14.3521 211.833 12.5092C211.441 10.6662 210.855 9.26091 210.073 8.29336C209.447 7.60224 208.343 7.2567 206.763 7.2567H198.033ZM244.923 69.9409L245.698 70.4244L242.975 95.8574H218.333V93.3003H219.53C220.876 93.3003 221.838 92.0102 222.417 89.43C222.745 87.9557 222.91 84.5463 222.91 79.2017V18.7292C222.91 12.8778 222.69 9.21485 222.253 7.74047C221.642 5.71321 220.735 4.69957 219.53 4.69957H218.333V2.14245H232.743V4.69957C231.053 4.65348 229.864 5.11426 229.176 6.0818C228.503 7.04935 228.041 8.27033 227.791 9.74471C227.541 11.2191 227.416 14.7438 227.416 20.3187V79.2017C227.416 83.0256 227.541 85.6521 227.791 87.0802C227.978 88.048 228.269 88.7621 228.659 89.2227C229.051 89.6836 230.271 89.9139 232.32 89.9139H234.644C237.084 89.9139 238.798 89.384 239.784 88.3243C240.769 87.2648 241.668 85.3985 242.483 82.7263C243.296 80.0079 244.11 75.7461 244.923 69.9409ZM274.564 2.14245L274.917 24.1199H274.024C273.852 20.2496 273.618 17.4852 273.32 15.8265C272.835 13.1542 272.186 11.1961 271.372 9.95204C270.575 8.66196 269.518 8.01692 268.204 8.01692H263.722V79.6163C263.722 85.3755 263.933 88.9694 264.356 90.3975C264.949 92.3328 265.865 93.3003 267.101 93.3003H268.204V95.8574H254.71V93.3003H255.836C257.182 93.3003 258.136 92.1025 258.699 89.7066C259.044 88.2323 259.216 84.8686 259.216 79.6163V8.01692H255.391C253.904 8.01692 252.847 8.33945 252.221 8.98449C251.408 9.85989 250.712 11.5416 250.134 14.0296C249.554 16.5176 249.21 19.881 249.1 24.1199H248.209L248.585 2.14245H274.564ZM290.969 93.3003V95.8574H277.334V93.3003H278.46C279.774 93.3003 280.728 92.1715 281.323 89.9139C281.699 88.4396 281.886 84.8919 281.886 79.2707V18.7292C281.886 13.9835 281.785 10.8505 281.581 9.33003C281.425 8.17819 281.104 7.18758 280.619 6.35825C279.93 5.25246 279.211 4.69957 278.46 4.69957H277.334V2.14245H290.969V4.69957H289.818C288.52 4.69957 287.573 5.82838 286.979 8.08604C286.588 9.56041 286.392 13.1081 286.392 18.7292V79.2707C286.392 84.0164 286.494 87.1495 286.697 88.6698C286.853 89.8216 287.183 90.8124 287.684 91.6416C288.355 92.7474 289.067 93.3003 289.818 93.3003H290.969ZM296.93 4.69957V2.14245H310.565V4.69957H309.415C308.117 4.69957 307.169 5.82838 306.576 8.08604C306.2 9.56041 306.012 13.1081 306.012 18.7292V64.5499C306.012 71.5992 305.747 77.3127 305.214 81.6896C304.698 86.0667 303.798 89.8909 302.515 93.1623C301.233 96.3873 299.683 98 297.868 98C296.398 98 295.24 96.9402 294.395 94.8207C293.55 92.6554 293.128 90.1902 293.128 87.4258C293.128 85.1682 293.323 83.4635 293.715 82.3118C294.231 80.8834 294.833 80.1692 295.522 80.1692C296.023 80.1692 296.468 80.6531 296.86 81.6206C297.266 82.5881 297.775 85.1682 298.385 89.361C298.744 91.8489 299.206 93.093 299.77 93.093C300.192 93.093 300.583 92.3328 300.943 90.8124C301.319 89.2917 301.506 86.5966 301.506 82.7263V18.7292C301.506 13.9835 301.405 10.8505 301.202 9.33003C301.044 8.17819 300.716 7.18758 300.215 6.35825C299.542 5.25246 298.83 4.69957 298.079 4.69957H296.93ZM311.691 95.8574V93.3003H312.888C314.234 93.3003 315.188 92.0332 315.752 89.4993C316.095 87.9787 316.268 84.5693 316.268 79.2707V18.7292C316.268 12.8778 316.049 9.21485 315.611 7.74047C315.001 5.71321 314.093 4.69957 312.888 4.69957H311.691V2.14245H324.647C329.403 2.14245 333.017 3.732 335.489 6.91114C337.976 10.0903 339.971 15.3888 341.473 22.8068C342.991 30.2247 343.75 38.7944 343.75 48.5161C343.75 61.5552 342.404 72.4517 339.713 81.206C336.694 90.9737 332.094 95.8574 325.913 95.8574H311.691ZM320.773 89.0844C322.761 90.3745 324.427 91.0197 325.773 91.0197C329.403 91.0197 332.414 87.2648 334.808 79.7546C337.202 72.2444 340.047 60.9822 339.713 49.069C339.346 35.9958 337.202 26.055 334.808 18.591C332.414 11.1269 329.34 7.39491 325.585 7.39491C324.177 7.39491 322.573 8.06301 320.773 9.39915V89.0844Z" fill="white"/>
<path d="M26.5069 70.8704C21.8006 65.3354 19.2189 58.2085 19.2502 50.8378C19.2502 34.431 31.6731 21.1333 47.0006 21.1333C62.328 21.1333 74.751 34.431 74.751 50.8378C74.7823 58.2085 72.2006 65.3354 67.4942 70.8704" stroke="white" stroke-width="1.5"/>
<path d="M39.6699 56.2191C38.4144 54.4734 37.7408 52.3534 37.7505 50.1777C37.7505 44.7104 41.89 40.2762 47.0007 40.2762C52.1113 40.2762 56.2508 44.7104 56.2508 50.1777C56.2508 52.4546 55.5339 54.5497 54.3267 56.2191" stroke="white" stroke-width="1.5"/>
<path d="M14.6946 84.0629C10.2745 79.6122 6.76292 74.2894 4.36768 68.4099C1.97244 62.5303 0.742276 56.2134 0.750036 49.8333C0.750036 23.415 21.4564 2 47.0006 2C72.5449 2 93.2513 23.415 93.2513 49.8333C93.259 56.2134 92.0289 62.5303 89.6336 68.4099C87.2384 74.2894 83.7268 79.6122 79.3067 84.0629" stroke="white" stroke-width="1.5"/>
<path d="M56.0896 91L55.25 90L64.25 81.5L55.25 73L56.0896 72L65.75 81.5L56.0896 91ZM40.4086 91L30.75 81.5L40.4086 72L41.25 73L32.25 81.5L41.25 90L40.4086 91ZM39.97 82.4808C39.7031 82.2159 39.5696 81.8878 39.5696 81.4964C39.5696 81.1051 39.7037 80.7787 39.9718 80.5174C40.24 80.2561 40.5736 80.1249 40.9728 80.1237C41.372 80.1225 41.7038 80.2543 41.9683 80.5192C42.2328 80.7841 42.3663 81.1122 42.3687 81.5036C42.3712 81.8949 42.2371 82.2213 41.9665 82.4826C41.696 82.7439 41.3623 82.8751 40.9655 82.8763C40.5688 82.8775 40.2369 82.7457 39.97 82.4808ZM47.2499 82.4808C46.983 82.2159 46.8495 81.8878 46.8495 81.4964C46.8495 81.1051 46.9836 80.7787 47.2517 80.5174C47.5199 80.2561 47.8535 80.1249 48.2527 80.1237C48.6519 80.1225 48.9838 80.2543 49.2483 80.5192C49.5128 80.7841 49.6462 81.1122 49.6487 81.5036C49.6511 81.8949 49.517 82.2213 49.2464 82.4826C48.9759 82.7439 48.6422 82.8751 48.2455 82.8763C47.8487 82.8775 47.5169 82.7457 47.2499 82.4808ZM54.5298 82.4808C54.2629 82.2159 54.1294 81.8878 54.1294 81.4964C54.1294 81.1051 54.2635 80.7787 54.5317 80.5174C54.7998 80.2561 55.1335 80.1249 55.5326 80.1237C55.9318 80.1225 56.2637 80.2543 56.5282 80.5192C56.7927 80.7841 56.9261 81.1122 56.9286 81.5036C56.931 81.8949 56.7969 82.2213 56.5264 82.4826C56.2558 82.7439 55.9221 82.8751 55.5254 82.8763C55.1286 82.8775 54.7968 82.7457 54.5298 82.4808Z" fill="white"/>
</svg>
